# xmcd
#
# Track frame offsets:
#	150
#	17890
#	36438
#	51750
#	67166
#	79378
#	95013
#	112728
#	128829
#	144875
#	157428
#	171826
#	186982
#	202550
#	218283
#	234181
#	249974
#	264709
#	281394
#	296587
#	312076
#
# Disc length: 4313 seconds
#
# Revision: 1
# Processed by: cddbd v1.4PL0 Copyright (c) Steve Scherf et al.
# Submitted via: audiograbber 1.82.02
#
DISCID=2a10d715
DTITLE=Top Hits USA RC-31 - RC-31
DYEAR=1995
DGENRE=Country
TTITLE0=Alan Jackson - I Don't Even Know Your Name
TTITLE1=Shania Twain - Any Man Of Mine
TTITLE2=Rick Trevino  - Bobbie Ann Mason 
TTITLE3=Jeff Carson - Not On Your Love
TTITLE4=Kenny Chesney - Fall In love
TTITLE5=David  Lee Murphy - Party Crowd
TTITLE6=Brooks and Dunn - You're Gonna Miss Me When I'm Gone
TTITLE7=Perfect Stranger - You Have The Right To Remain Silent
TTITLE8=Reba McEntire - And Still
TTITLE9=Lee Roy Parnell - A little Bit Of You
TTITLE10=Alabama - She Ain't Your Ordinary Girl
TTITLE11=Tracy Byrd - Walking In Jerusalem
TTITLE12=Pam Tillis - In Between Dances
TTITLE13=Clay Walker - My Heart Will Never Know
TTITLE14=George Strait  - Lead On 
TTITLE15=James House - This Is Me Missing You
TTITLE16=Lorrie Morgan - I Don't Know My Own Strength
TTITLE17=John Anderson - Mississippi Moon
TTITLE18=Diamond Rio - Finish What You Started
TTITLE19=Bryan White - Someone Else's Star
TTITLE20=Senandoah - Darned If I Don't (Danged If I Do)
EXTD=
EXTT0=
EXTT1=
EXTT2=
EXTT3=
EXTT4=
EXTT5=
EXTT6=
EXTT7=
EXTT8=
EXTT9=
EXTT10=
EXTT11=
EXTT12=
EXTT13=
EXTT14=
EXTT15=
EXTT16=
EXTT17=
EXTT18=
EXTT19=
EXTT20=
PLAYORDER=
